<svg xmlns="http://www.w3.org/2000/svg" width="1440" height="2200" viewBox="0 0 1440 2200">
  <defs>
    <linearGradient id="bg" x1="0" y1="0" x2="1" y2="1">
      <stop offset="0%" stop-color="#0f172a"/>
      <stop offset="50%" stop-color="#1e1b4b"/>
      <stop offset="100%" stop-color="#3b0764"/>
    </linearGradient>
    <radialGradient id="orbBlue" cx="50%" cy="50%" r="50%">
      <stop offset="0%" stop-color="#60a5fa" stop-opacity="0.8"/>
      <stop offset="100%" stop-color="#60a5fa" stop-opacity="0"/>
    </radialGradient>
    <radialGradient id="orbPurple" cx="50%" cy="50%" r="50%">
      <stop offset="0%" stop-color="#a78bfa" stop-opacity="0.8"/>
      <stop offset="100%" stop-color="#a78bfa" stop-opacity="0"/>
    </radialGradient>
    <filter id="glass">
      <feGaussianBlur in="BackgroundImage" stdDeviation="10" result="blur"/>
      <feColorMatrix in="SourceGraphic" type="matrix" values="1 0 0 0 0  0 1 0 0 0  0 0 1 0 0  0 0 0 .5 0"/>
    </filter>
    <filter id="elev">
      <feDropShadow dx="0" dy="8" stdDeviation="16" flood-color="#4f46e5" flood-opacity="0.25"/>
    </filter>
    <linearGradient id="cta" x1="0" y1="0" x2="1" y2="0">
      <stop offset="0%" stop-color="#60a5fa"/>
      <stop offset="50%" stop-color="#a78bfa"/>
      <stop offset="100%" stop-color="#38bdf8"/>
    </linearGradient>
  </defs>

  <!-- Background -->
  <rect width="1440" height="2200" fill="url(#bg)"/>
  <circle cx="-50" cy="120" r="260" fill="url(#orbPurple)"/>
  <circle cx="1320" cy="380" r="300" fill="url(#orbBlue)"/>
  <circle cx="300" cy="800" r="220" fill="url(#orbBlue)" opacity="0.5"/>
  <circle cx="1180" cy="1400" r="240" fill="url(#orbPurple)" opacity="0.5"/>

  <!-- Nav Bar (glass) -->
  <g filter="url(#elev)">
    <rect x="80" y="40" rx="24" ry="24" width="1280" height="72" fill="#ffffff0f" stroke="#ffffff33"/>
    <!-- Logo -->
    <g transform="translate(120,76)">
      <circle r="16" fill="none" stroke="#e5e7eb" stroke-width="2"/>
      <path d="M 6 -12 A 14 14 0 1 0 6 12 A 10 10 0 1 1 6 -12 Z" fill="#e5e7eb"/>
      <text x="28" y="6" fill="#e5e7eb" font-family="Inter, system-ui" font-size="20" font-weight="700">MoOn</text>
    </g>
    <!-- Menu -->
    <g font-family="Inter, system-ui" font-size="14" fill="#e5e7ebcc">
      <text x="540" y="85">Cómo funciona</text>
      <text x="680" y="85">FAQ</text>
      <text x="750" y="85">Blog</text>
      <text x="820" y="85">Silver</text>
    </g>
    <!-- Account Button -->
    <g transform="translate(1180,60)">
      <rect width="160" height="40" rx="20" fill="#ffffff1a" stroke="#ffffff33"/>
      <text x="80" y="26" text-anchor="middle" fill="#e5e7eb" font-family="Inter, system-ui" font-size="14" font-weight="600">Mi Cuenta</text>
    </g>
  </g>

  <!-- HERO -->
  <g transform="translate(0,160)">
    <g transform="translate(160,0)">
      <rect x="0" y="0" width="1120" height="520" rx="32" fill="#ffffff12" stroke="#ffffff26" filter="url(#elev)"/>
      <g transform="translate(80,80)">
        <rect x="0" y="0" width="220" height="36" rx="18" fill="#ffffff1a" stroke="#ffffff33"/>
        <text x="110" y="24" text-anchor="middle" fill="#e5e7ebcc" font-family="Inter, system-ui" font-size="14">Cuidamos tu convivencia</text>
        <text x="0" y="110" fill="#fafafa" font-family="Inter, ui-sans-serif" font-size="56" font-weight="800">Tu hogar compartido,</text>
        <text x="0" y="170" fill="#fafafa" font-family="Inter, ui-sans-serif" font-size="56" font-weight="800">tu ritmo, tu gente.</text>
        <text x="0" y="220" fill="#e5e7ebcc" font-family="Inter, system-ui" font-size="20" style="letter-spacing:.2px;">Conecta con personas compatibles y espacios verificados.</text>
        <text x="0" y="248" fill="#e5e7ebcc" font-family="Inter, system-ui" font-size="20">Acompañamiento humano + procesos claros, sin estrés.</text>

        <!-- CTAs -->
        <g transform="translate(0,290)">
          <rect width="230" height="52" rx="26" fill="url(#cta)" filter="url(#elev)"/>
          <text x="115" y="34" text-anchor="middle" fill="#0b1020" font-family="Inter, system-ui" font-size="16" font-weight="800">Empezar ahora</text>
        </g>
        <g transform="translate(260,290)">
          <rect width="230" height="52" rx="26" fill="#ffffff14" stroke="#ffffff3a"/>
          <text x="115" y="34" text-anchor="middle" fill="#e5e7eb" font-family="Inter, system-ui" font-size="16" font-weight="700">Ver cómo funciona</text>
        </g>
      </g>
      <!-- Hero Visual -->
      <g transform="translate(780,70)">
        <circle cx="120" cy="120" r="100" fill="url(#orbBlue)"/>
        <circle cx="220" cy="60" r="70" fill="url(#orbPurple)"/>
        <rect x="-10" y="200" width="340" height="180" rx="24" fill="#ffffff12" stroke="#ffffff33" filter="url(#glass)"/>
        <text x="160" y="260" text-anchor="middle" fill="#e5e7eb" font-family="Inter, system-ui" font-size="18" font-weight="700">Compatibilidad 92%</text>
        <text x="160" y="290" text-anchor="middle" fill="#e5e7ebcc" font-family="Inter, system-ui" font-size="14">Luna • Clara • Río</text>
        <text x="160" y="320" text-anchor="middle" fill="#e5e7eb99" font-family="Inter, system-ui" font-size="12">Respeto, orden, horarios similares</text>
      </g>
    </g>
  </g>

  <!-- Por qué MoOn -->
  <g transform="translate(0,760)">
    <text x="720" y="0" text-anchor="middle" fill="#fafafa" font-family="Inter, ui-sans-serif" font-size="36" font-weight="800">¿Por qué MoOn?</text>
    <text x="720" y="34" text-anchor="middle" fill="#e5e7ebcc" font-family="Inter, system-ui" font-size="16">Cuidamos tu bienestar en cada paso.</text>
    <g transform="translate(160,70)">
      <!-- 4 feature cards -->
      <g>
        <rect x="0" y="0" width="520" height="160" rx="20" fill="#ffffff12" stroke="#ffffff26"/>
        <circle cx="56" cy="56" r="22" fill="#6366f1"/>
        <text x="100" y="54" fill="#fafafa" font-family="Inter" font-size="18" font-weight="700">Compatibilidad humana</text>
        <text x="100" y="82" fill="#e5e7ebbb" font-family="Inter" font-size="14">Rutinas, valores y límites claros para convivencias felices.</text>
      </g>
      <g transform="translate(560,0)">
        <rect x="0" y="0" width="520" height="160" rx="20" fill="#ffffff12" stroke="#ffffff26"/>
        <circle cx="56" cy="56" r="22" fill="#22d3ee"/>
        <text x="100" y="54" fill="#fafafa" font-family="Inter" font-size="18" font-weight="700">Acompañamiento cercano</text>
        <text x="100" y="82" fill="#e5e7ebbb" font-family="Inter" font-size="14">Guía empática legal y emocional, sin sentirte solx.</text>
      </g>
      <g transform="translate(0,190)">
        <rect x="0" y="0" width="520" height="160" rx="20" fill="#ffffff12" stroke="#ffffff26"/>
        <circle cx="56" cy="56" r="22" fill="#a78bfa"/>
        <text x="100" y="54" fill="#fafafa" font-family="Inter" font-size="18" font-weight="700">Confianza blindada</text>
        <text x="100" y="82" fill="#e5e7ebbb" font-family="Inter" font-size="14">Verificación y seguros para convivencias transparentes.</text>
      </g>
      <g transform="translate(560,190)">
        <rect x="0" y="0" width="520" height="160" rx="20" fill="#ffffff12" stroke="#ffffff26"/>
        <circle cx="56" cy="56" r="22" fill="#34d399"/>
        <text x="100" y="54" fill="#fafafa" font-family="Inter" font-size="18" font-weight="700">Hogar con magia</text>
        <text x="100" y="82" fill="#e5e7ebbb" font-family="Inter" font-size="14">Herramientas para co-crear acuerdos y rituales de casa.</text>
      </g>
    </g>
  </g>

  <!-- Cómo funciona -->
  <g transform="translate(0,1180)">
    <text x="720" y="0" text-anchor="middle" fill="#fafafa" font-family="Inter" font-size="36" font-weight="800">¿Cómo funciona?</text>
    <g transform="translate(160,40)">
      <g>
        <rect x="0" y="0" width="360" height="200" rx="20" fill="#ffffff12" stroke="#ffffff26"/>
        <text x="24" y="46" fill="#fafafa" font-family="Inter" font-weight="700" font-size="18">1. Cuéntanos quién eres</text>
        <text x="24" y="78" fill="#e5e7ebbb" font-family="Inter" font-size="14">Perfil empático: necesidades, límites, hábitos y valores.</text>
      </g>
      <g transform="translate(380,0)">
        <rect x="0" y="0" width="360" height="200" rx="20" fill="#ffffff12" stroke="#ffffff26"/>
        <text x="24" y="46" fill="#fafafa" font-family="Inter" font-weight="700" font-size="18">2. Match con calma</text>
        <text x="24" y="78" fill="#e5e7ebbb" font-family="Inter" font-size="14">Personas y espacios compatibles + guía segura.</text>
      </g>
      <g transform="translate(760,0)">
        <rect x="0" y="0" width="360" height="200" rx="20" fill="#ffffff12" stroke="#ffffff26"/>
        <text x="24" y="46" fill="#fafafa" font-family="Inter" font-weight="700" font-size="18">3. Formaliza sin estrés</text>
        <text x="24" y="78" fill="#e5e7ebbb" font-family="Inter" font-size="14">Contratos, seguros y soporte 24/7.</text>
      </g>
    </g>
  </g>

  <!-- Testimonios -->
  <g transform="translate(0,1460)">
    <text x="720" y="0" text-anchor="middle" fill="#fafafa" font-family="Inter" font-size="32" font-weight="800">Historias que inspiran</text>
    <g transform="translate(160,40)">
      <rect x="0" y="0" width="560" height="180" rx="20" fill="#ffffff12" stroke="#ffffff26"/>
      <text x="28" y="56" fill="#e5e7eb" font-family="Inter" font-size="16" font-style="italic">“Encontré compañerxs que respetan mi ritmo. Hoy nuestro piso es paz.”</text>
      <text x="28" y="96" fill="#a5b4fc" font-family="Inter" font-size="13" font-weight="700">Lúa — Valencia</text>
    </g>
    <g transform="translate(720,40)">
      <rect x="0" y="0" width="560" height="180" rx="20" fill="#ffffff12" stroke="#ffffff26"/>
      <text x="28" y="56" fill="#e5e7eb" font-family="Inter" font-size="16" font-style="italic">“Como propietaria, me sentí segura y acompañada en todo.”</text>
      <text x="28" y="96" fill="#a5b4fc" font-family="Inter" font-size="13" font-weight="700">María José — Sevilla</text>
    </g>
  </g>

  <!-- CTA Final -->
  <g transform="translate(160,1700)" filter="url(#elev)">
    <rect x="0" y="0" width="1120" height="200" rx="28" fill="#ffffff12" stroke="#ffffff26"/>
    <text x="560" y="70" text-anchor="middle" fill="#fafafa" font-family="Inter" font-size="28" font-weight="800">¿Lista, listo, listx para dar el salto?</text>
    <text x="560" y="104" text-anchor="middle" fill="#e5e7ebcc" font-family="Inter" font-size="16">Únete a MoOn y construyamos un hogar que te abrace.</text>
    <g transform="translate(445,128)">
      <rect width="230" height="52" rx="26" fill="url(#cta)"/>
      <text x="115" y="34" text-anchor="middle" fill="#0b1020" font-family="Inter" font-size="16" font-weight="800">Crear mi cuenta</text>
    </g>
  </g>
</svg>

