<svg width="800" height="600" viewBox="0 0 800 600" xmlns="http://www.w3.org/2000/svg">
  <defs>
    <linearGradient id="regBg" x1="0" y1="0" x2="1" y2="1">
      <stop offset="0%" stop-color="#12192c" />
      <stop offset="100%" stop-color="#2d1f4f" />
    </linearGradient>
    <radialGradient id="regGlowA" cx="35%" cy="30%" r="45%">
      <stop offset="0%" stop-color="#38bdf8" stop-opacity="0.65" />
      <stop offset="100%" stop-color="#38bdf8" stop-opacity="0" />
    </radialGradient>
    <radialGradient id="regGlowB" cx="75%" cy="70%" r="48%">
      <stop offset="0%" stop-color="#f0abfc" stop-opacity="0.55" />
      <stop offset="100%" stop-color="#f0abfc" stop-opacity="0" />
    </radialGradient>
  </defs>
  <rect width="800" height="600" fill="url(#regBg)" />
  <circle cx="200" cy="140" r="220" fill="url(#regGlowA)" />
  <circle cx="620" cy="480" r="250" fill="url(#regGlowB)" />

  <!-- Group illustration -->
  <g transform="translate(160,190)" fill="none" stroke-linecap="round">
    <path d="M70 240c5-70 45-102 88-102s83 32 88 102" stroke="#e0f2feb0" stroke-width="6" />
    <path d="M210 230c6-78 52-118 102-118s96 40 102 118" stroke="#e9d5ffbd" stroke-width="6" />
    <path d="M30 240h430" stroke="#7dd3fda0" stroke-width="3" />

    <circle cx="110" cy="70" r="48" fill="#ffffff18" stroke="#bfdbfeaa" stroke-width="4" />
    <circle cx="262" cy="40" r="58" fill="#ffffff16" stroke="#f5d0feaa" stroke-width="4" />
    <circle cx="410" cy="84" r="50" fill="#ffffff12" stroke="#c7d2feaa" stroke-width="4" />
  </g>

  <!-- Plants / decor -->
  <g fill="#a5b4fc77">
    <path d="M84 520c18-60 38-87 62-87s40 27 58 87H84z" />
    <path d="M660 520c14-44 32-64 50-64s30 20 44 64H660z" />
  </g>

  <g fill="#ffffff55">
    <circle cx="150" cy="340" r="3" />
    <circle cx="420" cy="150" r="4" />
    <circle cx="540" cy="260" r="3" />
    <circle cx="640" cy="120" r="2" />
    <circle cx="500" cy="500" r="3" />
  </g>
</svg>
